<?xml version="1.0" standalone="no"?><!DOCTYPE svg PUBLIC "-//W3C//DTD SVG 1.1//EN" "http://www.w3.org/Graphics/SVG/1.1/DTD/svg11.dtd"><svg t="1545039676913" class="icon" style="" viewBox="0 0 1024 1024" version="1.1" xmlns="http://www.w3.org/2000/svg" p-id="29539" xmlns:xlink="http://www.w3.org/1999/xlink" width="200" height="200"><defs><style type="text/css"></style></defs><path d="M955.136 76.032H541.824V31.36a30.656 30.656 0 0 0-30.528-30.72h-0.128a30.144 30.144 0 0 0-29.568 30.08v45.312H68.352c-37.632 0-68.096 30.528-68.16 68.16v561.792a68.16 68.16 0 0 0 68.16 68.096h413.248v34.368l-186.752 141.568a30.08 30.08 0 1 0 36.288 48l150.464-114.112s9.856-7.104 18.304-12.992a20.416 20.416 0 0 1 23.424 0l18.496 13.056 150.4 113.984a29.952 29.952 0 0 0 42.112-5.76 30.144 30.144 0 0 0-5.76-42.176l-186.752-141.568v-34.24h413.248a68.16 68.16 0 0 0 68.224-68.096v-561.92c0-37.632-30.528-68.16-68.16-68.16z m-88.704 287.04L630.016 554.304a30.08 30.08 0 0 1-35.84 1.472L363.52 399.232 195.84 550.08a30.144 30.144 0 1 1-40.128-44.736l185.152-166.592c10.304-9.216 25.6-10.24 36.992-2.496l231.744 157.248 219.008-177.216a30.144 30.144 0 1 1 37.824 46.784z" p-id="29540"></path></svg>