<?xml version="1.0" standalone="no"?><!DOCTYPE svg PUBLIC "-//W3C//DTD SVG 1.1//EN" "http://www.w3.org/Graphics/SVG/1.1/DTD/svg11.dtd"><svg t="1545814211146" class="icon" style="" viewBox="0 0 1283 1024" version="1.1" xmlns="http://www.w3.org/2000/svg" p-id="13964" xmlns:xlink="http://www.w3.org/1999/xlink" width="250.5859375" height="200"><defs><style type="text/css"></style></defs><path d="M0 1023.914667 0 0 1282.304 0 1282.304 1023.914667 0 1023.914667ZM1218.389333 960 1218.389333 63.914667 63.914667 63.914667 63.914667 960 1218.389333 960ZM193.28 845.738667 193.28 781.653333 193.024 781.653333 193.024 589.397333 193.365333 589.397333 193.365333 575.914667 1089.109333 575.914667 1089.109333 640 1088.853333 640 1088.853333 781.653333 1089.024 781.653333 1089.024 845.738667 193.28 845.738667ZM1024.768 781.653333 1024.768 640 257.109333 640 257.109333 781.653333 1024.768 781.653333ZM193.024 448.938667 193.024 412.16 192.938667 412.16 192.938667 192.853333 576.938667 192.853333 576.938667 192.512 641.024 192.512 641.024 384.768 576.938667 384.768 576.938667 256.938667 257.024 256.938667 257.024 384.853333 640.938667 384.853333 640.938667 448.938667 193.024 448.938667ZM704.853333 448.938667 704.853333 384.853333 1088.938667 384.853333 1088.938667 448.938667 704.853333 448.938667ZM704.853333 256.853333 704.853333 192.768 1088.938667 192.768 1088.938667 256.853333 704.853333 256.853333Z" p-id="13965"></path></svg>