<?xml version="1.0" standalone="no"?><!DOCTYPE svg PUBLIC "-//W3C//DTD SVG 1.1//EN" "http://www.w3.org/Graphics/SVG/1.1/DTD/svg11.dtd"><svg t="1545105960574" class="icon" style="" viewBox="0 0 1172 1024" version="1.1" xmlns="http://www.w3.org/2000/svg" p-id="61550" xmlns:xlink="http://www.w3.org/1999/xlink" width="228.90625" height="200"><defs><style type="text/css"></style></defs><path d="M992.117785 726.828271L634.881205 916.146597c-26.128859 13.85256-68.613753 13.815472-94.779701 0L181.919168 726.290487c-8.159473-4.320812-13.778383-9.476116-16.875275-14.946671H1.631895c3.337966 9.698647 11.849781 18.970776 25.553987 26.499744l494.538263 271.246857c36.179847 19.842356 94.761157 19.879444 130.848282 0l493.277254-270.579264c14.038003-7.695867 22.586906-17.264704 25.683797-27.260058h-162.262255c-2.985625 5.674543-8.678713 11.015289-17.079261 15.484455z m0-190.672057L634.881205 725.437452c-26.128859 13.85256-68.613753 13.815472-94.779701 0L181.919168 535.61843c-8.159473-4.320812-13.778383-9.476116-16.875275-14.946672H1.631895c3.337966 9.698647 11.849781 18.970776 25.553987 26.499745L521.724145 818.41836c36.179847 19.842356 94.761157 19.879444 130.848282 0l493.277254-270.579264c14.038003-7.695867 22.586906-17.264704 25.683797-27.260059h-162.262255c-2.985625 5.674543-8.660168 11.033833-17.079261 15.484455zM27.185882 357.222671l494.538263 271.246857c36.179847 19.842356 94.761157 19.879444 130.848282 0l493.277254-270.579263c36.087125-19.786723 36.012948-51.923921-0.166898-71.766277L651.181608 14.895675c-36.179847-19.842356-94.761157-19.879444-130.848282 0l-493.277254 270.579264c-36.087125 19.786723-36.012948 51.923921 0.166898 71.766277z" p-id="61551"></path></svg>