<?xml version="1.0" standalone="no"?><!DOCTYPE svg PUBLIC "-//W3C//DTD SVG 1.1//EN" "http://www.w3.org/Graphics/SVG/1.1/DTD/svg11.dtd"><svg t="1545039239430" class="icon" style="" viewBox="0 0 1024 1024" version="1.1" xmlns="http://www.w3.org/2000/svg" p-id="21170" xmlns:xlink="http://www.w3.org/1999/xlink" width="200" height="200"><defs><style type="text/css"></style></defs><path d="M756.022 122.197c86.047 0 142.802-9.123 195.584-41.766v516.406c-52.782 32.582-107.799 55.203-193.846 55.203-85.985 0-117.884-9.837-170.512-42.636-52.565-32.52-109.568-42.636-195.521-42.636-85.923 0-158.845 31.93-211.534 64.575V95.853c52.69-32.8 125.642-64.73 211.534-64.73 85.953 0 142.987 10.21 195.521 42.636 52.69 32.52 82.882 48.438 168.774 48.438zM98.149 1010.16a31.03 31.03 0 0 1-31.03-31.03V63.426a31.03 31.03 0 1 1 62.06 0V979.13a31.03 31.03 0 0 1-31.03 31.03z" p-id="21171"></path></svg>