<?xml version="1.0" standalone="no"?><!DOCTYPE svg PUBLIC "-//W3C//DTD SVG 1.1//EN" "http://www.w3.org/Graphics/SVG/1.1/DTD/svg11.dtd"><svg t="1545105753728" class="icon" style="" viewBox="0 0 1024 1024" version="1.1" xmlns="http://www.w3.org/2000/svg" p-id="58959" xmlns:xlink="http://www.w3.org/1999/xlink" width="200" height="200"><defs><style type="text/css"></style></defs><path d="M809.7 822.5l-0.7 0.1c0 0.1 0.3 0.1 0.7-0.1z m32.9-6.5c1.8-0.3 3.1-0.6 4.1-0.8l-4.1 0.8z m0 0c-0.6 0.1-1.1 0.3-1.8 0.4l-1.4 0.3 3.2-0.7z m0 0" fill="" p-id="58960"></path><path d="M905.5 689.2c-23.7 0-43-19.2-43-43v-98.8c0-174.3-128.8-319.9-295.8-346.3-13-16.1-32.8-26.4-54.8-26.4-22.2 0-42 10.3-54.8 26.4C290 227.6 161.2 373.3 161.2 547.5v98.8c0 23.7-19.2 43-43 43-37.9 0-53.7 27-53.7 56.7 0 29.5 22.2 52.3 53.7 57.8 164.4 31 297.4 45.5 417.8 45.5 97.1 0 186.2-9.3 277-27.3 13.4-2.7 22.5-4.4 28-5.5l7.3-1.4c0.4-0.1 0.6-0.1 0.6-0.1l-0.6 0.1c-0.3 0-0.7 0.1-1.3 0.3l58.7-11.5c30.8-4.2 53.7-23.9 53.7-58.4-0.3-29.7-24.5-56.3-53.9-56.3z m-251.6-95.1c24.3-0.7 62.6-3.4 107.1-11.7 17.5-3.3 32.9-7.6 45.5-11.9v51.3c-11.4 4.8-31.1 11.9-56.1 16.8-40.1 7.9-74.8 11.7-98.5 13.6 2.5-10.9 4-22.3 4-34.1 0-8.1-0.7-16.2-2-24z m-219.1-331v46.2c0 14.7 11.9 26.6 26.6 26.6 14.7 0 26.6-11.9 26.6-26.6v-61.9c4.5-3.1 8.8-6.8 12.3-11.2 1.3-1.7 5.2-5.7 11.4-5.7s10 4 11.5 5.7c3.7 4.7 8.1 8.5 13 11.7v61.9c0 14.7 11.9 26.6 26.6 26.6 14.7 0 26.6-11.9 26.6-26.6v-46.6c114.4 31.5 200.3 131 215 248.3-11.6 4.8-30.1 11.3-53.6 15.8-57.5 10.7-104.3 11.2-118.2 11-26.3-40.9-72.1-67.8-124.2-67.8-52.3 0-98.2 27.1-124.4 68.3-12.4 0.4-54.7 0.8-110.5-11.2-23.3-5.1-42.1-11.5-54-16.3 14.6-117.5 100.7-217 215.3-248.2z m165.3 355.1c0 50.6-41.1 91.7-91.7 91.7s-91.7-41.1-91.7-91.7 41.1-91.7 91.7-91.7c50.5-0.1 91.7 41 91.7 91.7zM216.9 570c12.3 4.1 27.4 8.5 44.5 12.2 42.5 9.2 77.9 11.9 101.1 12.4-1.3 7.6-1.8 15.5-1.8 23.5 0 11.6 1.4 22.8 3.8 33.5-21.8-2-52.9-5.8-92-13.1-24.9-4.7-44.2-11.7-55.6-16.5v-52z m686.3 177.1c-1.1 0.4-2.8 1-5.4 1.3-1.1 0.1-2.1 0.3-3.3 0.6l-55.7 10.9-2.1 0.4-35.2 6.9c-91 18-175.4 26.1-265.9 26.1-116.7 0-246.2-14.1-407.9-44.7-5.1-0.8-7.5-2.8-7.5-2.8v-0.8c41.8-0.8 77.3-27.8 90.9-65.3 13.6 4.8 30.8 10 51.2 13.9 68 12.7 113.2 15.4 130.2 16.1 27 34.2 68.8 56.1 115.9 56.1 46.9 0 88.8-21.9 115.8-56.1 16.7-0.4 69.3-2.7 137.2-16.3 20.2-4 37.5-9.2 51-14 13.4 37.6 48.9 64.6 90.9 65.6v0.3c-0.1 0.8-0.2 1.3-0.1 1.8z m0 0" fill="" p-id="58961"></path><path d="M809.7 822.5l29.8-5.9-26.7 5.2c-1.6 0.5-2.6 0.6-3.1 0.7z m0 0" fill="" p-id="58962"></path></svg>