<?xml version="1.0" standalone="no"?><!DOCTYPE svg PUBLIC "-//W3C//DTD SVG 1.1//EN" "http://www.w3.org/Graphics/SVG/1.1/DTD/svg11.dtd"><svg t="1545788575162" class="icon" style="" viewBox="0 0 1024 1024" version="1.1" xmlns="http://www.w3.org/2000/svg" p-id="7201" xmlns:xlink="http://www.w3.org/1999/xlink" width="200" height="200"><defs><style type="text/css"></style></defs><path d="M649.2 703.8c-10.5 0-21 3.5-27 9.2-24.8 23.5-64.9 54.3-110.1 54.3-45.3 0-85.3-30.8-110.7-54.3-6.6-6.2-16.6-9.2-27-9.2H98.9c-18.8 0-34.2 10.8-34.2 23.9v144c0 13.1 15.5 23.9 34.2 23.9h826.2c18.8 0 34.2-10.8 34.2-23.9v-144c0-13.1-15.5-23.9-34.2-23.9H649.2z m213-575.3h-508c-18.5 0-33.6 16.4-33.6 36.3v475H422c13.2 37.2 48.3 63.9 90 63.9s76.8-26.8 90-63.9h293.8v-475c0-19.9-15.2-36.3-33.6-36.3zM479.9 256.3h255c15.9 0 30.7 11.3 32.8 27.3 2.6 19.6-12.8 36.6-31.2 36.6h-255c-15.9 0-30.7-11.3-32.8-27.3-2.6-19.6 12.8-36.6 31.2-36.6zM736.5 512h-255c-15.9 0-30.7-11.3-32.8-27.3-2.6-19.6 12.8-36.6 31.2-36.6h255c15.9 0 30.7 11.3 32.8 27.3 2.6 19.6-12.8 36.6-31.2 36.6zM256.4 639.8H128.6V288.1c0-17.4 19.1-31.8 42.4-31.8h85.5v383.5h-0.1z" p-id="7202"></path></svg>