<?xml version="1.0" standalone="no"?><!DOCTYPE svg PUBLIC "-//W3C//DTD SVG 1.1//EN" "http://www.w3.org/Graphics/SVG/1.1/DTD/svg11.dtd"><svg t="1545789948102" class="icon" style="" viewBox="0 0 1024 1024" version="1.1" xmlns="http://www.w3.org/2000/svg" p-id="13238" xmlns:xlink="http://www.w3.org/1999/xlink" width="200" height="200"><defs><style type="text/css"></style></defs><path d="M678.08 864v64H256A96 96 0 0 1 160 832V192A96 96 0 0 1 256 96h512A96 96 0 0 1 864 192v512h-64V192a32 32 0 0 0-32-32H256a32 32 0 0 0-32 32v640a32 32 0 0 0 32 32h422.08z" p-id="13239"></path><path d="M608 800a128 128 0 1 1 0-256 128 128 0 0 1 0 256z m0-64a64 64 0 1 0 0-128 64 64 0 0 0 0 128z" p-id="13240"></path><path d="M685.241166 703.986332m22.627417 22.627417l90.509668 90.509668q22.627417 22.627417 0 45.254834l0 0q-22.627417 22.627417-45.254834 0l-90.509668-90.509668q-22.627417-22.627417 0-45.254834l0 0q22.627417-22.627417 45.254834 0Z" p-id="13241"></path><path d="M320 256m32 0l256 0q32 0 32 32l0 0q0 32-32 32l-256 0q-32 0-32-32l0 0q0-32 32-32Z" p-id="13242"></path><path d="M320 384m32 0l256 0q32 0 32 32l0 0q0 32-32 32l-256 0q-32 0-32-32l0 0q0-32 32-32Z" p-id="13243"></path><path d="M320 512m32 0l64 0q32 0 32 32l0 0q0 32-32 32l-64 0q-32 0-32-32l0 0q0-32 32-32Z" p-id="13244"></path><path d="M320 640m32 0l64 0q32 0 32 32l0 0q0 32-32 32l-64 0q-32 0-32-32l0 0q0-32 32-32Z" p-id="13245"></path></svg>